<svg width="342" height="338" viewBox="0 0 342 338" fill="none" xmlns="http://www.w3.org/2000/svg">
<mask id="mask0_1_12" style="mask-type:alpha" maskUnits="userSpaceOnUse" x="0" y="0" width="342" height="338">
<g clip-path="url(#clip0_1_12)">
<path d="M295.125 90.0225H202.097L155.584 170.739L202.097 251.464H295.125L341.639 170.739L295.117 90.0225H295.125ZM289.425 241.569H207.805L166.991 170.747L207.805 99.9248H289.425L330.231 170.747L289.425 241.569Z" fill="#EEEEEE"/>
<path d="M46.5138 175.698L0 256.415L46.5138 337.131H139.541L186.055 256.415L139.541 175.698H46.5138ZM133.842 327.237H52.2213L11.4151 256.415L52.2213 185.592H133.842L174.656 256.415L133.842 327.237Z" fill="#EEEEEE"/>
<path d="M139.541 161.449L186.055 80.7323L139.541 0H46.5138L0 80.7244L46.5138 161.441H139.541V161.449ZM52.2135 9.90224H133.834L174.648 80.7244L133.834 151.547H52.2135L11.4073 80.7244L52.2135 9.90224Z" fill="#EEEEEE"/>
</g>
</mask>
<g mask="url(#mask0_1_12)">
<rect x="-210.707" y="-69.2323" width="665.232" height="431.949" fill="white"/>
</g>
<defs>
<clipPath id="clip0_1_12">
<rect width="341.646" height="337.131" fill="white"/>
</clipPath>
</defs>
</svg>
